<svg width="192" height="115" viewBox="0 0 192 115" fill="none" xmlns="http://www.w3.org/2000/svg">
<path fill-rule="evenodd" clip-rule="evenodd" d="M138.153 108.596C155.261 109.009 172.743 108.184 189.101 114.034C190.076 114.379 191.148 113.876 191.501 112.901C191.846 111.926 191.343 110.854 190.368 110.502C173.628 104.517 155.748 105.266 138.243 104.846C137.208 104.816 136.346 105.641 136.323 106.676C136.293 107.712 137.118 108.566 138.153 108.596Z" fill="#101828"/>
<path fill-rule="evenodd" clip-rule="evenodd" d="M136.617 83.7586C141.949 78.8521 147.769 75.1764 154.804 73.3546C155.809 73.0951 156.409 72.0713 156.154 71.0693C155.892 70.0673 154.864 69.4651 153.867 69.7246C146.217 71.7046 139.879 75.6661 134.082 80.9978C133.317 81.6983 133.264 82.8856 133.969 83.6476C134.667 84.4089 135.859 84.4591 136.617 83.7586Z" fill="#101828"/>
<path fill-rule="evenodd" clip-rule="evenodd" d="M121.783 30.1914C124.228 21.8101 129.043 15.2537 136.423 10.5189C137.293 9.96016 137.548 8.79917 136.985 7.92842C136.43 7.05767 135.268 6.80415 134.398 7.3629C126.23 12.6054 120.89 19.8609 118.183 29.1406C117.89 30.1336 118.468 31.1762 119.458 31.4657C120.455 31.7559 121.498 31.1844 121.783 30.1914Z" fill="#101828"/>
<path fill-rule="evenodd" clip-rule="evenodd" d="M37.5187 18.8169C36.0637 20.5291 34.7586 22.3741 33.6486 24.3384C33.1536 25.2129 32.2836 27.0713 32.1486 28.6651C31.9986 30.3631 32.5761 31.7956 34.0611 32.5501C36.0336 33.5506 37.6087 33.4464 38.8237 32.8411C39.9937 32.2599 40.9086 31.1176 41.4861 29.5861C42.5886 26.6589 42.4236 22.1851 41.8461 19.6321C43.3986 18.0301 45.1011 16.5773 46.9236 15.2858C60.4986 5.6671 80.4112 9.21386 95.7337 23.5959C101.096 28.6314 103.676 39.2063 105.019 50.6161C107.111 68.3813 105.919 88.2234 105.754 94.0366C105.716 95.4721 105.851 96.3241 105.926 96.4944C106.279 97.3314 106.901 97.5489 107.336 97.6314C107.966 97.7439 108.469 97.6239 108.874 97.4139C109.421 97.1259 109.871 96.6189 110.081 95.8366C110.194 95.4046 110.224 94.8031 110.209 94.1619C110.194 93.7171 110.104 93.2311 110.194 92.9124C110.779 90.8709 111.484 88.8774 112.174 86.8696C114.476 80.1204 117.454 73.7956 120.761 67.4784C131.269 47.4054 141.431 26.1961 158.659 10.9029C159.431 10.2166 159.506 9.03011 158.816 8.25611C158.134 7.48211 156.949 7.41159 156.169 8.09859C138.596 23.6941 128.156 45.2686 117.439 65.7391C114.626 71.1128 112.046 76.4941 109.901 82.1229C110.119 72.1659 110.036 58.3831 108.214 46.1881C106.594 35.3423 103.511 25.7573 98.2986 20.8621C81.5136 5.10684 59.6211 1.68911 44.7561 12.2266C43.1661 13.3546 41.6512 14.5951 40.2412 15.9406C32.4637 1.89688 15.8136 -3.73191 1.09863 2.98509C0.153627 3.41484 -0.258866 4.52785 0.168634 5.4691C0.603634 6.41035 1.71359 6.82587 2.65859 6.39612C15.9186 0.343621 30.9562 5.7451 37.5187 18.8169ZM38.6061 23.5186C37.9986 24.3766 37.4361 25.2661 36.9111 26.1856C36.6336 26.6791 36.1536 27.6279 35.9511 28.5564C35.9061 28.7739 35.8986 29.1144 35.8986 29.2719C36.4161 29.5269 36.8211 29.6499 37.1511 29.4841C37.5636 29.2801 37.7737 28.8001 37.9762 28.2639C38.4862 26.9184 38.6511 25.1348 38.6061 23.5186Z" fill="#101828"/>
</svg>
