<svg width="40" height="40" viewBox="0 0 40 40" fill="none" xmlns="http://www.w3.org/2000/svg">
<path d="M35.8333 30L24.7619 20M15.2381 20L4.1667 30M3.33331 11.6666L16.9415 21.1924C18.0435 21.9637 18.5944 22.3494 19.1938 22.4988C19.7231 22.6308 20.2768 22.6308 20.8062 22.4988C21.4055 22.3494 21.9565 21.9637 23.0584 21.1924L36.6666 11.6666M11.3333 33.3333H28.6666C31.4669 33.3333 32.867 33.3333 33.9366 32.7883C34.8774 32.309 35.6423 31.5441 36.1217 30.6032C36.6666 29.5337 36.6666 28.1336 36.6666 25.3333V14.6666C36.6666 11.8664 36.6666 10.4662 36.1217 9.39667C35.6423 8.45586 34.8774 7.69096 33.9366 7.21159C32.867 6.66663 31.4669 6.66663 28.6666 6.66663H11.3333C8.53305 6.66663 7.13292 6.66663 6.06336 7.21159C5.12255 7.69096 4.35765 8.45586 3.87828 9.39667C3.33331 10.4662 3.33331 11.8664 3.33331 14.6666V25.3333C3.33331 28.1336 3.33331 29.5337 3.87828 30.6032C4.35765 31.5441 5.12255 32.309 6.06336 32.7883C7.13292 33.3333 8.53305 33.3333 11.3333 33.3333Z" stroke="black" stroke-width="2" stroke-linecap="round" stroke-linejoin="round"/>
</svg>
