<svg width="36" height="36" viewBox="0 0 36 36" fill="none" xmlns="http://www.w3.org/2000/svg">
<path d="M18 36C8.04706 36 0 27.9529 0 18C0 8.04706 8.04706 0 18 0C27.9529 0 36 8.04706 36 18C36 27.9529 27.9529 36 18 36Z" fill="#0F0A2B"/>
<path d="M7.99414 22.1037C7.99414 22.1037 9.63532 18.2523 14.6118 18.8611C19.575 19.4699 22.1559 19.2184 22.8706 18.8611C23.1485 18.7023 24.9485 17.9743 25.5838 16.5449C25.9544 15.4596 25.8618 15.1552 25.5838 14.5067C25.028 13.1699 23.85 13.2096 22.4603 12.6273C22.275 12.5479 21.0044 12.0979 20.1706 11.264C19.3103 10.3773 18.2383 8.56403 20.3162 7.08168C22.3809 5.59932 25.0015 7.08168 25.0015 7.08168C25.0015 7.08168 25.9677 7.62432 26.1 7.95521C26.2191 8.29932 26.4971 8.82873 26.1 8.66991C25.6897 8.52432 25.8221 8.66991 25.8221 8.66991C25.8221 8.66991 26.1265 9.13315 26.3383 9.5302C26.55 9.9405 26.4706 10.2317 26.4706 10.2317C26.4706 10.2317 25.5838 9.92726 24.6044 9.35815C23.6383 8.77579 22.95 8.52432 22.95 8.52432C22.95 8.52432 21.7191 8.10079 21.3088 8.66991C21.0706 9.00079 21.0177 10.1258 22.4603 10.8537C26.0603 12.6802 24.6044 11.8861 26.3383 12.7861C27.3309 13.3817 27.6486 14.2817 27.8206 15.3802C28.0059 16.4787 27.7677 18.9273 25.7427 20.2773C23.7044 21.6405 21.9441 21.7993 20.7662 21.7993C19.5883 21.7993 19.7603 21.7993 18.1985 21.5611C16.7559 21.3229 16.1735 20.6743 13.9633 20.7008C11.1441 20.8861 7.99414 22.1037 7.99414 22.1037Z" fill="url(#paint0_linear_137_3475)"/>
<path opacity="0.6" d="M14.3471 20.6739C13.4471 20.7136 12.0971 20.846 10.4956 21.3092C9.54267 21.5474 8.49708 21.918 7.99414 22.1033C9.23826 21.018 14.2941 20.0254 14.2941 20.0254C14.2941 20.0254 15.3 20.3563 14.3471 20.6739Z" fill="url(#paint1_linear_137_3475)"/>
<path opacity="0.1" d="M16.9679 19.0857L15.3002 20.171L15.062 18.9004L16.9679 19.0857Z" fill="black"/>
<path d="M12.044 15.6575C12.044 15.6575 9.41021 13.9237 9.14551 7.09424C10.2573 8.03394 12.3749 9.7413 14.8896 10.906C17.3911 12.0839 20.9779 13.381 21.9308 14.1089C22.8837 14.8501 23.7043 16.3589 21.5073 18.4236C18.4896 20.7134 16.8087 21.5075 16.0676 21.8384C15.3264 22.1692 12.5735 23.6384 10.522 27.7281C10.5617 25.3192 11.2234 24.1016 11.4617 23.7575C11.6867 23.4134 12.5999 21.8781 15.1014 20.3031C17.5896 18.7148 19.6146 17.3781 19.8529 16.2531C19.7867 14.9031 18.4896 14.3075 17.6161 14.1089C16.7293 13.9104 16.094 13.8839 14.8896 13.9104C13.672 13.9369 12.7058 14.3207 12.3882 14.7178C12.0837 15.1148 12.044 15.6575 12.044 15.6575Z" fill="url(#paint2_linear_137_3475)"/>
<path d="M14.0957 14.9428C14.678 15.9752 16.2927 25.6237 16.5045 27.5957C16.7295 29.5678 15.856 29.7134 15.856 29.7134C15.856 29.7134 16.1074 28.6546 15.9618 28.3369C15.8162 28.0193 15.2736 27.3707 15.2736 28.4693C15.2736 29.5546 13.5133 13.9237 14.0957 14.9428Z" fill="url(#paint3_linear_137_3475)"/>
<path opacity="0.3" d="M12.044 15.6575C12.044 15.6575 9.41021 13.9237 9.14551 7.09424C10.2573 8.03394 12.3749 9.7413 14.8896 10.906C17.3911 12.0839 20.9779 13.381 21.9308 14.1089C22.8837 14.8501 23.7043 16.3589 21.5073 18.4236C18.4896 20.7134 16.8087 21.5075 16.0676 21.8384C15.3264 22.1692 12.5735 23.6384 10.522 27.7281C10.5617 25.3192 11.2234 24.1016 11.4617 23.7575C11.6867 23.4134 12.5999 21.8781 15.1014 20.3031C17.5896 18.7148 19.6146 17.3781 19.8529 16.2531C19.7867 14.9031 18.4896 14.3075 17.6161 14.1089C16.7293 13.9104 16.094 13.8839 14.8896 13.9104C13.672 13.9369 12.7058 14.3207 12.3882 14.7178C12.0837 15.1148 12.044 15.6575 12.044 15.6575Z" fill="url(#paint4_linear_137_3475)"/>
<path opacity="0.1" d="M11.6734 15.0886C11.6602 14.9827 10.5881 13.818 10.5749 12.6666C10.5484 11.5151 13.8043 11.4622 15.3528 11.846C16.5043 12.1769 19.2308 12.8651 20.5013 14.268C21.7719 15.671 19.416 17.4577 19.416 17.4577C19.416 17.4577 20.3822 16.518 20.4087 15.5519C20.4352 14.5857 17.8543 13.646 17.2057 13.5401C16.544 13.4342 14.2278 12.9974 13.0366 13.7122C11.8455 14.4136 11.6734 15.0886 11.6734 15.0886Z" fill="#F34400"/>
<path opacity="0.3" d="M19.3765 8.06057C19.3765 8.06057 19.9323 7.12087 21.0309 6.69734C22.0103 6.2341 23.9029 6.28704 25.4779 7.38557C26.047 7.78263 26.0735 7.84881 26.272 8.4444C26.2853 8.47087 26.325 8.55028 26.2985 8.61646C26.2721 8.81498 25.9147 8.57675 25.7956 8.60322C25.6632 8.61645 23.5059 7.08116 22.0765 7.16057C20.8456 7.02822 19.3765 8.06057 19.3765 8.06057Z" fill="url(#paint5_linear_137_3475)"/>
<defs>
<linearGradient id="paint0_linear_137_3475" x1="17.9338" y1="6.41991" x2="17.9338" y2="22.1037" gradientUnits="userSpaceOnUse">
<stop stop-color="#FFCF74"/>
<stop offset="1" stop-color="#FF4500"/>
</linearGradient>
<linearGradient id="paint1_linear_137_3475" x1="8.60296" y1="21.4151" x2="14.7574" y2="20.343" gradientUnits="userSpaceOnUse">
<stop stop-color="#FFCF74"/>
<stop offset="1" stop-color="#FF4500"/>
</linearGradient>
<linearGradient id="paint2_linear_137_3475" x1="16.0279" y1="7.09424" x2="16.0279" y2="27.7281" gradientUnits="userSpaceOnUse">
<stop stop-color="#FFCF74"/>
<stop offset="1" stop-color="#FF4500"/>
</linearGradient>
<linearGradient id="paint3_linear_137_3475" x1="15.2604" y1="14.9031" x2="15.2604" y2="29.7134" gradientUnits="userSpaceOnUse">
<stop stop-color="#FFCF74"/>
<stop offset="1" stop-color="#FF4500"/>
</linearGradient>
<linearGradient id="paint4_linear_137_3475" x1="10.0058" y1="10.9722" x2="27.9793" y2="24.1942" gradientUnits="userSpaceOnUse">
<stop stop-color="white"/>
<stop offset="1" stop-color="#FFBF66"/>
</linearGradient>
<linearGradient id="paint5_linear_137_3475" x1="20.5279" y1="7.55763" x2="22.5529" y2="7.55763" gradientUnits="userSpaceOnUse">
<stop stop-color="#FFC473"/>
<stop offset="1" stop-color="#FF520B"/>
</linearGradient>
</defs>
</svg>
