<svg width="14" height="15" viewBox="0 0 14 15" fill="none" xmlns="http://www.w3.org/2000/svg">
<path fill-rule="evenodd" clip-rule="evenodd" d="M5.63011 10.3692C5.56972 10.0413 5.52006 9.78189 5.5068 9.72567C4.87464 7.04915 4.12763 4.37541 3.232 1.77491C2.98105 1.04632 2.18632 0.658813 1.45773 0.90976C0.729139 1.16071 0.341618 1.95548 0.592565 2.68407C1.45812 5.19645 2.1789 7.78095 2.79016 10.3675C2.83682 10.5647 3.04603 12.2627 3.31622 13.0194C3.56134 13.7046 4.00702 14.0444 4.28248 14.1629C4.71997 14.351 5.47566 14.3766 6.25835 13.758C7.28019 12.9508 8.97222 10.5192 9.25182 10.1153C9.76507 9.37193 10.2439 8.57608 10.6982 7.79902C11.5596 6.32482 12.2417 4.77274 12.9 3.20138C13.1981 2.49052 12.8626 1.67239 12.1518 1.37425C11.4414 1.07697 10.6226 1.41232 10.3253 2.12269C9.71446 3.58028 9.08742 5.02271 8.28826 6.38996C7.86866 7.1069 7.42812 7.84286 6.95462 8.52891C6.81206 8.73445 6.24342 9.58876 5.63011 10.3692Z" fill="#101828"/>
</svg>
