<svg width="28" height="28" viewBox="0 0 28 28" fill="none" xmlns="http://www.w3.org/2000/svg">
<path fill-rule="evenodd" clip-rule="evenodd" d="M13.9915 4.33639C11.2616 1.95069 7.22444 1.46249 4.08925 4.14126C0.697998 7.03883 0.20528 11.9188 2.887 15.3696C3.90495 16.6795 5.89177 18.6474 7.80115 20.4496C9.73289 22.2729 11.6602 23.9959 12.6106 24.8376C12.6165 24.8429 12.6226 24.8482 12.6288 24.8537C12.7181 24.9329 12.8293 25.0315 12.936 25.1118C13.0636 25.2079 13.2469 25.3273 13.4917 25.4003C13.8171 25.4974 14.1669 25.4974 14.4923 25.4003C14.737 25.3273 14.9203 25.2079 15.048 25.1118C15.1546 25.0315 15.2659 24.9329 15.3552 24.8537C15.3614 24.8482 15.3674 24.8429 15.3734 24.8376C16.3238 23.9959 18.2511 22.2729 20.1828 20.4496C22.0922 18.6474 24.079 16.6795 25.097 15.3696C27.7684 11.932 27.3518 7.01445 23.8826 4.13103C20.7125 1.4962 16.7183 1.94978 13.9915 4.33639Z" fill="white"/>
</svg>
